<svg xmlns="http://www.w3.org/2000/svg" viewBox="0 0 100 100">
  <rect width="100" height="100" rx="22" fill="#020810"/>
  <!-- Fish body -->
  <g transform="translate(50,38)" stroke="#2de0cc" stroke-width="1.6" fill="none" stroke-linecap="round" stroke-linejoin="round">
    <path d="M-22,0 C-22,-10 -6,-16 9,-12 C22,-8 26,0 22,6 C16,13 -3,13 -15,8 C-22,5 -22,0 -22,0 Z"/>
    <path d="M-22,0 L-36,-14"/>
    <path d="M-22,0 L-36,3"/>
    <path d="M-36,-14 L-28,-4 L-36,3"/>
    <circle cx="18" cy="1" r="1.2" fill="#2de0cc" stroke="none"/>
  </g>
  <!-- ENES -->
  <text x="50" y="65" font-family="Georgia,serif" font-size="11" fill="#c8d8e8" text-anchor="middle" letter-spacing="4">ENES</text>
  <!-- Wave -->
  <path d="M24,72 Q29,69 34,72 Q39,75 44,72 Q49,69 54,72 Q59,75 64,72 Q69,69 74,72" stroke="#2de0cc" stroke-width="1" fill="none" stroke-linecap="round"/>
  <!-- Akvaryum -->
  <text x="50" y="85" font-family="Georgia,serif" font-size="7.5" font-style="italic" fill="#5a7a94" text-anchor="middle" letter-spacing="1">Akvaryum</text>
</svg>
